<svg xmlns="http://www.w3.org/2000/svg" xmlns:xlink="http://www.w3.org/1999/xlink" width="2000" zoomAndPan="magnify" viewBox="0 0 1500 1499.999933" height="2000" preserveAspectRatio="xMidYMid meet" version="1.0"><defs><g/><clipPath id="5047fc3f32"><path d="M 981.753906 565.050781 L 1006.855469 565.050781 L 1006.855469 590.152344 L 981.753906 590.152344 Z M 981.753906 565.050781 " clip-rule="nonzero"/></clipPath><clipPath id="b3003230c6"><path d="M 994.304688 565.050781 C 987.375 565.050781 981.753906 570.671875 981.753906 577.601562 C 981.753906 584.535156 987.375 590.152344 994.304688 590.152344 C 1001.234375 590.152344 1006.855469 584.535156 1006.855469 577.601562 C 1006.855469 570.671875 1001.234375 565.050781 994.304688 565.050781 Z M 994.304688 565.050781 " clip-rule="nonzero"/></clipPath><clipPath id="d3345ec37c"><path d="M 0.753906 0.0507812 L 25.855469 0.0507812 L 25.855469 25.152344 L 0.753906 25.152344 Z M 0.753906 0.0507812 " clip-rule="nonzero"/></clipPath><clipPath id="bba0cc4880"><path d="M 13.304688 0.0507812 C 6.375 0.0507812 0.753906 5.671875 0.753906 12.601562 C 0.753906 19.535156 6.375 25.152344 13.304688 25.152344 C 20.234375 25.152344 25.855469 19.535156 25.855469 12.601562 C 25.855469 5.671875 20.234375 0.0507812 13.304688 0.0507812 Z M 13.304688 0.0507812 " clip-rule="nonzero"/></clipPath><clipPath id="9d119d8a27"><rect x="0" width="26" y="0" height="26"/></clipPath><clipPath id="4e94f27f09"><rect x="0" width="1105" y="0" height="151"/></clipPath><clipPath id="1405e7405e"><path d="M 664.507812 1058.8125 L 689.609375 1058.8125 L 689.609375 1083.910156 L 664.507812 1083.910156 Z M 664.507812 1058.8125 " clip-rule="nonzero"/></clipPath><clipPath id="3ac964eaaa"><path d="M 677.058594 1058.8125 C 670.125 1058.8125 664.507812 1064.429688 664.507812 1071.363281 C 664.507812 1078.292969 670.125 1083.910156 677.058594 1083.910156 C 683.988281 1083.910156 689.609375 1078.292969 689.609375 1071.363281 C 689.609375 1064.429688 683.988281 1058.8125 677.058594 1058.8125 Z M 677.058594 1058.8125 " clip-rule="nonzero"/></clipPath><clipPath id="6317e89073"><path d="M 0.507812 0.8125 L 25.609375 0.8125 L 25.609375 25.910156 L 0.507812 25.910156 Z M 0.507812 0.8125 " clip-rule="nonzero"/></clipPath><clipPath id="a0d4491310"><path d="M 13.058594 0.8125 C 6.125 0.8125 0.507812 6.429688 0.507812 13.363281 C 0.507812 20.292969 6.125 25.910156 13.058594 25.910156 C 19.988281 25.910156 25.609375 20.292969 25.609375 13.363281 C 25.609375 6.429688 19.988281 0.8125 13.058594 0.8125 Z M 13.058594 0.8125 " clip-rule="nonzero"/></clipPath><clipPath id="c2670f05ce"><rect x="0" width="26" y="0" height="26"/></clipPath><clipPath id="91b03bdad6"><path d="M 1006.855469 1058.8125 L 1031.957031 1058.8125 L 1031.957031 1083.910156 L 1006.855469 1083.910156 Z M 1006.855469 1058.8125 " clip-rule="nonzero"/></clipPath><clipPath id="2eea5170f6"><path d="M 1019.40625 1058.8125 C 1012.472656 1058.8125 1006.855469 1064.429688 1006.855469 1071.363281 C 1006.855469 1078.292969 1012.472656 1083.910156 1019.40625 1083.910156 C 1026.335938 1083.910156 1031.957031 1078.292969 1031.957031 1071.363281 C 1031.957031 1064.429688 1026.335938 1058.8125 1019.40625 1058.8125 Z M 1019.40625 1058.8125 " clip-rule="nonzero"/></clipPath><clipPath id="e8ce3493a0"><path d="M 0.855469 0.8125 L 25.957031 0.8125 L 25.957031 25.910156 L 0.855469 25.910156 Z M 0.855469 0.8125 " clip-rule="nonzero"/></clipPath><clipPath id="1b7aca9b43"><path d="M 13.40625 0.8125 C 6.472656 0.8125 0.855469 6.429688 0.855469 13.363281 C 0.855469 20.292969 6.472656 25.910156 13.40625 25.910156 C 20.335938 25.910156 25.957031 20.292969 25.957031 13.363281 C 25.957031 6.429688 20.335938 0.8125 13.40625 0.8125 Z M 13.40625 0.8125 " clip-rule="nonzero"/></clipPath><clipPath id="1bcf64d797"><rect x="0" width="26" y="0" height="26"/></clipPath></defs><path fill="#ffffff" d="M 528.292969 818.011719 C 480.886719 804.398438 440.035156 780.425781 406.074219 745.277344 C 370.285156 708.238281 347.929688 664.144531 341.199219 612.957031 C 334.667969 563.324219 343.644531 516.074219 368.96875 472.8125 C 412.121094 399.09375 477.242188 356.597656 560.871094 342.429688 C 622.949219 331.914062 682.546875 341.023438 738.457031 370.164062 C 792.433594 398.300781 832.894531 439.84375 857.453125 495.953125 C 868.421875 521.019531 874.230469 547.382812 875.488281 574.835938 C 877.394531 616.421875 867.972656 655.214844 848.5625 691.839844 C 846.410156 695.902344 844.667969 696.28125 840.722656 694.136719 C 813.179688 679.15625 792.523438 657.960938 780.570312 628.695312 C 779.65625 626.460938 779.28125 624.394531 779.820312 621.898438 C 794.714844 552.746094 764.175781 490.824219 708.703125 454.574219 C 673.773438 431.746094 635.316406 421.597656 594.058594 424.992188 C 534.5625 429.890625 486.730469 456.402344 454.761719 507.703125 C 419.214844 564.746094 427.28125 635.859375 473.65625 684.59375 C 503.667969 716.132812 540.535156 733.984375 583.605469 739.484375 C 591.378906 740.480469 599.148438 740.238281 606.910156 740.671875 C 611.59375 740.929688 613.417969 739.140625 614.519531 734.566406 C 621 707.640625 638.644531 691.246094 664.882812 684.535156 C 695.527344 676.699219 728.710938 691.050781 742.378906 716.921875 C 757.636719 745.800781 749.011719 780.4375 721.96875 800.523438 C 702.328125 815.109375 679.773438 821.878906 656.148438 825.535156 C 613.191406 832.1875 570.660156 829.832031 528.292969 818.011719 Z M 528.292969 818.011719 " fill-opacity="1" fill-rule="nonzero"/><path fill="#ffffff" d="M 781.613281 675.351562 C 809.941406 708.628906 846.042969 726.6875 888.507812 732.78125 C 900.347656 734.480469 912.277344 734.925781 924.242188 734.910156 C 976.953125 734.84375 1029.667969 735.015625 1082.378906 734.769531 C 1092.335938 734.722656 1099.390625 737.730469 1105.03125 746.417969 C 1121.105469 771.171875 1137.902344 795.460938 1154.355469 819.96875 C 1155.523438 821.707031 1157.164062 823.332031 1157.0625 825.800781 C 1155.453125 827.519531 1153.339844 826.847656 1151.472656 826.847656 C 1067.78125 826.890625 984.085938 827.472656 900.40625 826.667969 C 852.792969 826.210938 808.308594 812.960938 767.542969 787.902344 C 764.273438 785.890625 763.675781 784.042969 765.027344 780.441406 C 785.078125 727.09375 751.804688 674.289062 700.722656 663.367188 C 691.59375 661.417969 682.386719 661.097656 673.175781 661.835938 C 669.253906 662.148438 667.664062 660.636719 666.484375 657.324219 C 659.394531 637.445312 655.058594 617.0625 653.871094 595.925781 C 651.535156 554.40625 660.582031 515.398438 679.351562 478.574219 C 686.648438 464.261719 684.078125 466.441406 695.714844 474.320312 C 719.363281 490.332031 737.847656 511.203125 751.582031 536.269531 C 753.046875 538.9375 753.597656 541.375 752.796875 544.492188 C 740.433594 592.777344 750.40625 636.226562 781.613281 675.351562 Z M 781.613281 675.351562 " fill-opacity="1" fill-rule="nonzero"/><path fill="#ffffff" d="M 826.433594 359.238281 C 855.285156 349.867188 884.394531 345.464844 914.363281 345.574219 C 991.882812 345.859375 1069.40625 345.660156 1146.925781 345.683594 C 1149.421875 345.683594 1151.984375 345.246094 1154.429688 346.210938 C 1155.445312 348.40625 1153.683594 349.625 1152.761719 351.023438 C 1135.945312 376.589844 1119.058594 402.109375 1102.265625 427.6875 C 1098.109375 434.015625 1092.484375 436.730469 1084.898438 436.714844 C 1028.566406 436.605469 972.238281 436.644531 915.910156 436.703125 C 897.703125 436.722656 879.847656 439.441406 862.417969 444.664062 C 858.960938 445.699219 856.839844 445.386719 854.679688 442.203125 C 837.757812 417.265625 817.511719 395.476562 792.921875 377.875 C 791.921875 377.15625 790.792969 376.441406 790.472656 374.421875 C 801.777344 368.40625 813.695312 363.425781 826.433594 359.238281 Z M 826.433594 359.238281 " fill-opacity="1" fill-rule="nonzero"/><g clip-path="url(#5047fc3f32)"><g clip-path="url(#b3003230c6)"><g transform="matrix(1, 0, 0, 1, 981, 565)"><g clip-path="url(#9d119d8a27)"><g clip-path="url(#d3345ec37c)"><g clip-path="url(#bba0cc4880)"><path fill="#ffffff" d="M 0.753906 0.0507812 L 25.855469 0.0507812 L 25.855469 25.152344 L 0.753906 25.152344 Z M 0.753906 0.0507812 " fill-opacity="1" fill-rule="nonzero"/></g></g></g></g></g></g><g transform="matrix(1, 0, 0, 1, 208, 994)"><g clip-path="url(#4e94f27f09)"><g fill="#ffffff" fill-opacity="1"><g transform="translate(1.126968, 110.745435)"><g><path d="M 7.859375 0 L 7.859375 -80.890625 L 60.078125 -80.890625 L 60.078125 -68.984375 L 22.640625 -68.984375 L 22.640625 -46.328125 L 52.921875 -46.328125 L 52.921875 -34.671875 L 22.640625 -34.671875 L 22.640625 0 Z M 7.859375 0 "/></g></g></g><g fill="#ffffff" fill-opacity="1"><g transform="translate(82.676438, 110.745435)"><g><path d="M 7.859375 0 L 7.859375 -80.890625 L 22.640625 -80.890625 L 22.640625 -11.5625 L 58.46875 -11.5625 L 58.46875 0 Z M 7.859375 0 "/></g></g></g><g fill="#ffffff" fill-opacity="1"><g transform="translate(164.225908, 110.745435)"><g><path d="M 45.75 1.390625 C 37.664062 1.390625 30.597656 -0.378906 24.546875 -3.921875 C 18.503906 -7.472656 13.769531 -12.382812 10.34375 -18.65625 C 6.914062 -24.9375 5.203125 -32.195312 5.203125 -40.4375 C 5.203125 -48.6875 6.914062 -55.945312 10.34375 -62.21875 C 13.769531 -68.5 18.503906 -73.410156 24.546875 -76.953125 C 30.597656 -80.492188 37.664062 -82.265625 45.75 -82.265625 C 53.769531 -82.265625 60.820312 -80.492188 66.90625 -76.953125 C 72.988281 -73.410156 77.722656 -68.5 81.109375 -62.21875 C 84.503906 -55.945312 86.203125 -48.6875 86.203125 -40.4375 C 86.203125 -32.195312 84.503906 -24.9375 81.109375 -18.65625 C 77.722656 -12.382812 72.988281 -7.472656 66.90625 -3.921875 C 60.820312 -0.378906 53.769531 1.390625 45.75 1.390625 Z M 45.75 -11.90625 C 53.457031 -11.90625 59.601562 -14.445312 64.1875 -19.53125 C 68.769531 -24.613281 71.0625 -31.582031 71.0625 -40.4375 C 71.0625 -49.300781 68.769531 -56.273438 64.1875 -61.359375 C 59.601562 -66.441406 53.457031 -68.984375 45.75 -68.984375 C 38.050781 -68.984375 31.890625 -66.441406 27.265625 -61.359375 C 22.648438 -56.273438 20.34375 -49.300781 20.34375 -40.4375 C 20.34375 -31.582031 22.648438 -24.613281 27.265625 -19.53125 C 31.890625 -14.445312 38.050781 -11.90625 45.75 -11.90625 Z M 45.75 -11.90625 "/></g></g></g><g fill="#ffffff" fill-opacity="1"><g transform="translate(273.493737, 110.745435)"><g><path d="M 24.265625 0 L 2.890625 -80.890625 L 18.71875 -80.890625 L 33.28125 -16.515625 L 50.375 -80.890625 L 66.671875 -80.890625 L 83.3125 -16.515625 L 97.875 -80.890625 L 113.8125 -80.890625 L 91.859375 0 L 74.296875 0 L 58.234375 -59.96875 L 41.71875 0 Z M 24.265625 0 "/></g></g></g><g fill="#ffffff" fill-opacity="1"><g transform="translate(408.054605, 110.745435)"><g/></g></g><g fill="#ffffff" fill-opacity="1"><g transform="translate(453.45468, 110.745435)"><g><path d="M 13.859375 -29.234375 C 11.171875 -29.234375 8.957031 -30.078125 7.21875 -31.765625 C 5.488281 -33.460938 4.625 -35.507812 4.625 -37.90625 C 4.625 -40.363281 5.488281 -42.441406 7.21875 -44.140625 C 8.957031 -45.835938 11.171875 -46.6875 13.859375 -46.6875 C 16.554688 -46.6875 18.769531 -45.835938 20.5 -44.140625 C 22.238281 -42.441406 23.109375 -40.363281 23.109375 -37.90625 C 23.109375 -35.507812 22.238281 -33.460938 20.5 -31.765625 C 18.769531 -30.078125 16.554688 -29.234375 13.859375 -29.234375 Z M 13.859375 -29.234375 "/></g></g></g><g fill="#ffffff" fill-opacity="1"><g transform="translate(499.08572, 110.745435)"><g/></g></g><g fill="#ffffff" fill-opacity="1"><g transform="translate(544.485795, 110.745435)"><g><path d="M 45.75 1.390625 C 37.664062 1.390625 30.597656 -0.378906 24.546875 -3.921875 C 18.503906 -7.472656 13.769531 -12.382812 10.34375 -18.65625 C 6.914062 -24.9375 5.203125 -32.195312 5.203125 -40.4375 C 5.203125 -48.6875 6.914062 -55.945312 10.34375 -62.21875 C 13.769531 -68.5 18.503906 -73.410156 24.546875 -76.953125 C 30.597656 -80.492188 37.664062 -82.265625 45.75 -82.265625 C 53.769531 -82.265625 60.820312 -80.492188 66.90625 -76.953125 C 72.988281 -73.410156 77.722656 -68.5 81.109375 -62.21875 C 84.503906 -55.945312 86.203125 -48.6875 86.203125 -40.4375 C 86.203125 -32.738281 84.695312 -25.863281 81.6875 -19.8125 C 78.6875 -13.769531 74.53125 -8.976562 69.21875 -5.4375 L 87.9375 14.671875 L 69.5625 14.671875 L 56.84375 0.109375 C 53.300781 0.960938 49.601562 1.390625 45.75 1.390625 Z M 45.75 -11.90625 C 53.457031 -11.90625 59.601562 -14.445312 64.1875 -19.53125 C 68.769531 -24.613281 71.0625 -31.582031 71.0625 -40.4375 C 71.0625 -49.300781 68.769531 -56.273438 64.1875 -61.359375 C 59.601562 -66.441406 53.457031 -68.984375 45.75 -68.984375 C 38.050781 -68.984375 31.890625 -66.441406 27.265625 -61.359375 C 22.648438 -56.273438 20.34375 -49.300781 20.34375 -40.4375 C 20.34375 -31.582031 22.648438 -24.613281 27.265625 -19.53125 C 31.890625 -14.445312 38.050781 -11.90625 45.75 -11.90625 Z M 45.75 -11.90625 "/></g></g></g><g fill="#ffffff" fill-opacity="1"><g transform="translate(653.407116, 110.745435)"><g><path d="M 2.65625 0 L 32.234375 -80.890625 L 48.875 -80.890625 L 78.453125 0 L 62.734375 0 L 56.265625 -18.71875 L 24.734375 -18.71875 L 18.140625 0 Z M 28.765625 -30.265625 L 52.234375 -30.265625 L 40.4375 -63.890625 Z M 28.765625 -30.265625 "/></g></g></g><g fill="#ffffff" fill-opacity="1"><g transform="translate(752.280523, 110.745435)"><g/></g></g><g fill="#ffffff" fill-opacity="1"><g transform="translate(797.680597, 110.745435)"><g><path d="M 13.859375 -29.234375 C 11.171875 -29.234375 8.957031 -30.078125 7.21875 -31.765625 C 5.488281 -33.460938 4.625 -35.507812 4.625 -37.90625 C 4.625 -40.363281 5.488281 -42.441406 7.21875 -44.140625 C 8.957031 -45.835938 11.171875 -46.6875 13.859375 -46.6875 C 16.554688 -46.6875 18.769531 -45.835938 20.5 -44.140625 C 22.238281 -42.441406 23.109375 -40.363281 23.109375 -37.90625 C 23.109375 -35.507812 22.238281 -33.460938 20.5 -31.765625 C 18.769531 -30.078125 16.554688 -29.234375 13.859375 -29.234375 Z M 13.859375 -29.234375 "/></g></g></g><g fill="#ffffff" fill-opacity="1"><g transform="translate(843.311637, 110.745435)"><g/></g></g><g fill="#ffffff" fill-opacity="1"><g transform="translate(888.711712, 110.745435)"><g><path d="M 45.75 1.390625 C 37.664062 1.390625 30.597656 -0.378906 24.546875 -3.921875 C 18.503906 -7.472656 13.769531 -12.382812 10.34375 -18.65625 C 6.914062 -24.9375 5.203125 -32.195312 5.203125 -40.4375 C 5.203125 -48.6875 6.914062 -55.945312 10.34375 -62.21875 C 13.769531 -68.5 18.503906 -73.410156 24.546875 -76.953125 C 30.597656 -80.492188 37.664062 -82.265625 45.75 -82.265625 C 53.769531 -82.265625 60.820312 -80.492188 66.90625 -76.953125 C 72.988281 -73.410156 77.722656 -68.5 81.109375 -62.21875 C 84.503906 -55.945312 86.203125 -48.6875 86.203125 -40.4375 C 86.203125 -32.738281 84.695312 -25.863281 81.6875 -19.8125 C 78.6875 -13.769531 74.53125 -8.976562 69.21875 -5.4375 L 87.9375 14.671875 L 69.5625 14.671875 L 56.84375 0.109375 C 53.300781 0.960938 49.601562 1.390625 45.75 1.390625 Z M 45.75 -11.90625 C 53.457031 -11.90625 59.601562 -14.445312 64.1875 -19.53125 C 68.769531 -24.613281 71.0625 -31.582031 71.0625 -40.4375 C 71.0625 -49.300781 68.769531 -56.273438 64.1875 -61.359375 C 59.601562 -66.441406 53.457031 -68.984375 45.75 -68.984375 C 38.050781 -68.984375 31.890625 -66.441406 27.265625 -61.359375 C 22.648438 -56.273438 20.34375 -49.300781 20.34375 -40.4375 C 20.34375 -31.582031 22.648438 -24.613281 27.265625 -19.53125 C 31.890625 -14.445312 38.050781 -11.90625 45.75 -11.90625 Z M 45.75 -11.90625 "/></g></g></g><g fill="#ffffff" fill-opacity="1"><g transform="translate(997.633034, 110.745435)"><g><path d="M 44.484375 1.390625 C 36.316406 1.390625 29.304688 -0.359375 23.453125 -3.859375 C 17.597656 -7.367188 13.09375 -12.265625 9.9375 -18.546875 C 6.78125 -24.828125 5.203125 -32.085938 5.203125 -40.328125 C 5.203125 -48.566406 6.78125 -55.84375 9.9375 -62.15625 C 13.09375 -68.476562 17.597656 -73.410156 23.453125 -76.953125 C 29.304688 -80.492188 36.316406 -82.265625 44.484375 -82.265625 C 54.191406 -82.265625 62.144531 -79.859375 68.34375 -75.046875 C 74.539062 -70.234375 78.410156 -63.472656 79.953125 -54.765625 L 63.671875 -54.765625 C 62.671875 -59.160156 60.53125 -62.609375 57.25 -65.109375 C 53.976562 -67.609375 49.644531 -68.859375 44.25 -68.859375 C 36.78125 -68.859375 30.925781 -66.316406 26.6875 -61.234375 C 22.457031 -56.148438 20.34375 -49.179688 20.34375 -40.328125 C 20.34375 -31.460938 22.457031 -24.507812 26.6875 -19.46875 C 30.925781 -14.425781 36.78125 -11.90625 44.25 -11.90625 C 49.644531 -11.90625 53.976562 -13.078125 57.25 -15.421875 C 60.53125 -17.773438 62.671875 -21.03125 63.671875 -25.1875 L 79.953125 -25.1875 C 78.410156 -16.863281 74.539062 -10.351562 68.34375 -5.65625 C 62.144531 -0.957031 54.191406 1.390625 44.484375 1.390625 Z M 44.484375 1.390625 "/></g></g></g></g></g><g clip-path="url(#1405e7405e)"><g clip-path="url(#3ac964eaaa)"><g transform="matrix(1, 0, 0, 1, 664, 1058)"><g clip-path="url(#c2670f05ce)"><g clip-path="url(#6317e89073)"><g clip-path="url(#a0d4491310)"><path fill="#ffffff" d="M 0.507812 0.8125 L 25.609375 0.8125 L 25.609375 25.910156 L 0.507812 25.910156 Z M 0.507812 0.8125 " fill-opacity="1" fill-rule="nonzero"/></g></g></g></g></g></g><g clip-path="url(#91b03bdad6)"><g clip-path="url(#2eea5170f6)"><g transform="matrix(1, 0, 0, 1, 1006, 1058)"><g clip-path="url(#1bcf64d797)"><g clip-path="url(#e8ce3493a0)"><g clip-path="url(#1b7aca9b43)"><path fill="#ffffff" d="M 0.855469 0.8125 L 25.957031 0.8125 L 25.957031 25.910156 L 0.855469 25.910156 Z M 0.855469 0.8125 " fill-opacity="1" fill-rule="nonzero"/></g></g></g></g></g></g></svg>